<svg xmlns="http://www.w3.org/2000/svg" width="44.18749982537702" height="40.062499755527824" fill="none" style=""><rect id="backgroundrect" width="100%" height="100%" x="0" y="0" fill="none" stroke="none" style="" class=""/>
                                        
                                        
                                    <g class="currentLayer" style=""><title>Layer 1</title><path d="M0 19.7072H10.1869C10.0128 27.1315 7.90703 27.9742 5.2623 28.2148L4.24242 28.3412V36.5049L5.418 36.4419C8.87154 36.2476 12.6897 35.625 15.2371 32.4803C17.4701 29.7236 18.4545 25.2198 18.4545 18.3062V5.49512H0V19.7072Z" fill="#e98ae9" id="svg_1" class="" fill-opacity="1"/><path d="M23.5459 5.49512V19.7072H33.5968C33.4227 27.1315 31.3851 27.9742 28.7403 28.2148L27.7883 28.3412V36.5049L28.896 36.4419C32.3496 36.2476 36.2019 35.625 38.7493 32.4803C40.982 29.7236 42.0004 25.2198 42.0004 18.3062V5.49512H23.5459Z" fill="#e98ae9" id="svg_2" class="" fill-opacity="1"/></g></svg>